<svg width="21.000000" height="21.000000" viewBox="0 0 21 21" fill="none" xmlns="http://www.w3.org/2000/svg" xmlns:xlink="http://www.w3.org/1999/xlink">
	<desc>
			Created with Pixso.
	</desc>
	<defs/>
	<path id="Vector" d="M19.86 10C19.86 10.22 19.78 10.43 19.62 10.58C19.46 10.74 19.25 10.83 19.03 10.83L10.7 10.83L10.7 19.16C10.7 19.38 10.61 19.59 10.45 19.75C10.3 19.91 10.09 20 9.86 20C9.64 20 9.43 19.91 9.28 19.75C9.12 19.59 9.03 19.38 9.03 19.16L9.03 10.83L0.7 10.83C0.48 10.83 0.26 10.74 0.11 10.58C-0.05 10.43 -0.14 10.22 -0.14 10C-0.14 9.77 -0.05 9.56 0.11 9.41C0.26 9.25 0.48 9.16 0.7 9.16L9.03 9.16L9.03 0.83C9.03 0.61 9.12 0.4 9.28 0.24C9.43 0.08 9.64 0 9.86 0C10.09 0 10.3 0.08 10.45 0.24C10.61 0.4 10.7 0.61 10.7 0.83L10.7 9.16L19.03 9.16C19.25 9.16 19.46 9.25 19.62 9.41C19.78 9.56 19.86 9.77 19.86 10Z" fill="#00AADD" fill-opacity="1.000000" fill-rule="nonzero"/>
	<path id="Vector" d="M19.62 10.58C19.46 10.74 19.25 10.83 19.03 10.83L10.7 10.83L10.7 19.16C10.7 19.38 10.61 19.59 10.45 19.75C10.3 19.91 10.09 20 9.86 20C9.64 20 9.43 19.91 9.28 19.75C9.12 19.59 9.03 19.38 9.03 19.16L9.03 10.83L0.7 10.83C0.48 10.83 0.26 10.74 0.11 10.58C-0.05 10.43 -0.14 10.22 -0.14 10C-0.14 9.77 -0.05 9.56 0.11 9.41C0.26 9.25 0.48 9.16 0.7 9.16L9.03 9.16L9.03 0.83C9.03 0.61 9.12 0.4 9.28 0.24C9.43 0.08 9.64 0 9.86 0C10.09 0 10.3 0.08 10.45 0.24C10.61 0.4 10.7 0.61 10.7 0.83L10.7 9.16L19.03 9.16C19.25 9.16 19.46 9.25 19.62 9.41C19.78 9.56 19.86 9.77 19.86 10C19.86 10.22 19.78 10.43 19.62 10.58Z" stroke="#00AADD" stroke-opacity="1.000000" stroke-width="1.000000"/>
</svg>
