<svg width="20.000000" height="20.000000" viewBox="0 0 20 20" fill="none" xmlns="http://www.w3.org/2000/svg" xmlns:xlink="http://www.w3.org/1999/xlink">
	<desc>
			Created with Pixso.
	</desc>
	<defs/>
	<path id="Vector" d="M15.48 4.61L10.1 4.61L10.1 0.76C10.1 0.61 10.05 0.46 9.97 0.34C9.88 0.21 9.76 0.11 9.62 0.05C9.48 0 9.33 -0.02 9.18 0.01C9.03 0.04 8.89 0.11 8.78 0.22L-0.45 9.45C-0.52 9.52 -0.57 9.61 -0.61 9.7C-0.65 9.79 -0.67 9.89 -0.67 10C-0.67 10.1 -0.65 10.2 -0.61 10.29C-0.57 10.38 -0.52 10.47 -0.45 10.54L8.78 19.77C8.89 19.88 9.03 19.95 9.18 19.98C9.33 20.01 9.48 19.99 9.62 19.94C9.76 19.88 9.88 19.78 9.97 19.65C10.05 19.53 10.1 19.38 10.1 19.23L10.1 15.38L15.48 15.38C15.69 15.38 15.88 15.3 16.03 15.15C16.17 15.01 16.25 14.81 16.25 14.61L16.25 5.38C16.25 5.18 16.17 4.98 16.03 4.84C15.88 4.69 15.69 4.61 15.48 4.61ZM14.71 13.84L9.33 13.84C9.12 13.84 8.93 13.92 8.78 14.07C8.64 14.21 8.56 14.41 8.56 14.61L8.56 17.37L1.19 10L8.56 2.62L8.56 5.38C8.56 5.58 8.64 5.78 8.78 5.92C8.93 6.07 9.12 6.15 9.33 6.15L14.71 6.15L14.71 13.84ZM19.33 5.38L19.33 14.61C19.33 14.81 19.25 15.01 19.1 15.15C18.96 15.3 18.76 15.38 18.56 15.38C18.36 15.38 18.16 15.3 18.02 15.15C17.87 15.01 17.79 14.81 17.79 14.61L17.79 5.38C17.79 5.18 17.87 4.98 18.02 4.84C18.16 4.69 18.36 4.61 18.56 4.61C18.76 4.61 18.96 4.69 19.1 4.84C19.25 4.98 19.33 5.18 19.33 5.38Z" fill="#00AADD" fill-opacity="1.000000" fill-rule="nonzero"/>
</svg>
