<svg width="20.000000" height="20.000000" viewBox="0 0 20 20" fill="none" xmlns="http://www.w3.org/2000/svg" xmlns:xlink="http://www.w3.org/1999/xlink">
	<desc>
			Created with Pixso.
	</desc>
	<defs/>
	<path id="Vector" d="M3.17 4.61L8.56 4.61L8.56 0.76C8.56 0.61 8.6 0.46 8.69 0.34C8.77 0.21 8.89 0.11 9.03 0.05C9.17 0 9.33 -0.02 9.48 0.01C9.63 0.04 9.76 0.11 9.87 0.22L19.1 9.45C19.17 9.52 19.23 9.61 19.27 9.7C19.31 9.79 19.33 9.89 19.33 10C19.33 10.1 19.31 10.2 19.27 10.29C19.23 10.38 19.17 10.47 19.1 10.54L9.87 19.77C9.76 19.88 9.63 19.95 9.48 19.98C9.33 20.01 9.17 19.99 9.03 19.94C8.89 19.88 8.77 19.78 8.69 19.65C8.6 19.53 8.56 19.38 8.56 19.23L8.56 15.38L3.17 15.38C2.97 15.38 2.77 15.3 2.63 15.15C2.49 15.01 2.41 14.81 2.41 14.61L2.41 5.38C2.41 5.18 2.49 4.98 2.63 4.84C2.77 4.69 2.97 4.61 3.17 4.61ZM3.94 13.84L9.33 13.84C9.53 13.84 9.73 13.92 9.87 14.07C10.02 14.21 10.1 14.41 10.1 14.61L10.1 17.37L17.47 10L10.1 2.62L10.1 5.38C10.1 5.58 10.02 5.78 9.87 5.92C9.73 6.07 9.53 6.15 9.33 6.15L3.94 6.15L3.94 13.84ZM-0.67 5.38L-0.67 14.61C-0.67 14.81 -0.59 15.01 -0.45 15.15C-0.3 15.3 -0.11 15.38 0.1 15.38C0.3 15.38 0.5 15.3 0.64 15.15C0.79 15.01 0.87 14.81 0.87 14.61L0.87 5.38C0.87 5.18 0.79 4.98 0.64 4.84C0.5 4.69 0.3 4.61 0.1 4.61C-0.11 4.61 -0.3 4.69 -0.45 4.84C-0.59 4.98 -0.67 5.18 -0.67 5.38Z" fill="#00AADD" fill-opacity="1.000000" fill-rule="nonzero"/>
</svg>
