<svg width="20.000000" height="20.000000" viewBox="0 0 20 20" fill="none" xmlns="http://www.w3.org/2000/svg" xmlns:xlink="http://www.w3.org/1999/xlink">
	<desc>
			Created with Pixso.
	</desc>
	<defs/>
	<path id="Vector" d="M19.15 0.39C18.94 0.2 18.7 0.07 18.43 0.02C18.17 -0.03 17.89 0 17.64 0.11L0.6 7.5C0.3 7.63 0.05 7.86 -0.12 8.16C-0.29 8.46 -0.36 8.81 -0.33 9.16C-0.3 9.51 -0.17 9.85 0.04 10.11C0.25 10.37 0.54 10.55 0.85 10.62L5.18 11.58L5.18 17.55C5.18 17.87 5.26 18.18 5.43 18.45C5.59 18.72 5.82 18.93 6.09 19.05C6.36 19.18 6.66 19.21 6.94 19.15C7.23 19.08 7.49 18.93 7.7 18.7L10.1 16.05L13.73 19.59C14 19.85 14.35 19.99 14.7 20C14.86 20 15.02 19.97 15.16 19.91C15.41 19.83 15.63 19.67 15.8 19.47C15.97 19.26 16.09 19 16.15 18.73L19.62 1.99C19.68 1.7 19.67 1.4 19.59 1.12C19.5 0.84 19.35 0.58 19.15 0.39ZM14.71 18.36L7.1 10.97L18.06 2.23L14.71 18.36Z" fill="#00AADD" fill-opacity="1.000000" fill-rule="nonzero"/>
</svg>
