<svg width="18.000000" height="20.000000" viewBox="0 0 18 20" fill="none" xmlns="http://www.w3.org/2000/svg" xmlns:xlink="http://www.w3.org/1999/xlink">
	<desc>
			Created with Pixso.
	</desc>
	<defs/>
	<path id="Vector" d="M17.2 18.7L10.8 8.46L17.12 1.39C17.26 1.22 17.33 1.01 17.32 0.79C17.31 0.57 17.21 0.37 17.05 0.22C16.89 0.07 16.68 -0.01 16.47 0C16.25 0.01 16.05 0.11 15.91 0.27L9.89 7.01L5.75 0.38C5.68 0.26 5.57 0.17 5.45 0.1C5.33 0.03 5.2 0 5.06 0L0.15 0C0.01 0 -0.14 0.04 -0.26 0.11C-0.39 0.19 -0.49 0.3 -0.56 0.43C-0.64 0.56 -0.67 0.71 -0.67 0.85C-0.66 1 -0.62 1.15 -0.54 1.28L5.86 11.52L-0.45 18.59C-0.53 18.68 -0.58 18.77 -0.62 18.87C-0.66 18.98 -0.68 19.09 -0.67 19.2C-0.67 19.31 -0.64 19.42 -0.59 19.52C-0.55 19.61 -0.48 19.7 -0.4 19.78C-0.32 19.85 -0.23 19.91 -0.13 19.95C-0.03 19.98 0.08 20 0.19 19.99C0.3 19.99 0.4 19.96 0.5 19.91C0.6 19.86 0.69 19.8 0.76 19.71L6.77 12.98L10.91 19.6C10.99 19.72 11.09 19.82 11.21 19.88C11.33 19.95 11.47 19.98 11.6 19.98L16.51 19.98C16.66 19.98 16.8 19.94 16.93 19.87C17.05 19.79 17.16 19.68 17.23 19.55C17.3 19.42 17.33 19.27 17.33 19.12C17.32 18.97 17.28 18.83 17.2 18.7ZM12.05 18.32L1.64 1.66L4.61 1.66L15.02 18.32L12.05 18.32Z" fill="#00AADD" fill-opacity="1.000000" fill-rule="nonzero"/>
</svg>
